<mxfile host="app.diagrams.net" modified="2024-05-07T15:37:26.414Z" agent="Mozilla/5.0 (Macintosh; Intel Mac OS X 10_15_7) AppleWebKit/605.1.15 (KHTML, like Gecko) Version/16.5.2 Safari/605.1.15" etag="kOxdQGK9mz5FiNYdKVrc" version="24.3.0" type="github">
  <diagram name="Seite-1" id="XUegQEatq1qs46oRsgHK">
    <mxGraphModel dx="1590" dy="935" grid="1" gridSize="10" guides="1" tooltips="1" connect="1" arrows="1" fold="1" page="1" pageScale="1" pageWidth="1169" pageHeight="827" math="0" shadow="0">
      <root>
        <mxCell id="0" />
        <mxCell id="1" parent="0" />
        <mxCell id="O4Sl8JPDGK1HjKNpcumD-1" value="" style="rounded=0;whiteSpace=wrap;html=1;strokeWidth=2;" vertex="1" parent="1">
          <mxGeometry x="110" y="140" width="50" height="80" as="geometry" />
        </mxCell>
        <mxCell id="O4Sl8JPDGK1HjKNpcumD-2" value="" style="endArrow=none;html=1;rounded=0;exitX=0;exitY=0;exitDx=0;exitDy=0;entryX=1;entryY=0;entryDx=0;entryDy=0;strokeWidth=2;" edge="1" parent="1" source="O4Sl8JPDGK1HjKNpcumD-1" target="O4Sl8JPDGK1HjKNpcumD-1">
          <mxGeometry width="50" height="50" relative="1" as="geometry">
            <mxPoint x="450" y="210" as="sourcePoint" />
            <mxPoint x="230" y="200" as="targetPoint" />
            <Array as="points">
              <mxPoint x="135" y="170" />
            </Array>
          </mxGeometry>
        </mxCell>
        <mxCell id="O4Sl8JPDGK1HjKNpcumD-3" value="" style="pointerEvents=1;verticalLabelPosition=bottom;shadow=0;dashed=0;align=center;html=1;verticalAlign=top;shape=mxgraph.electrical.electro-mechanical.make_contact;strokeWidth=2;" vertex="1" parent="1">
          <mxGeometry x="840" y="102" width="75" height="16" as="geometry" />
        </mxCell>
        <mxCell id="O4Sl8JPDGK1HjKNpcumD-4" value="" style="endArrow=none;html=1;rounded=0;entryX=0;entryY=1;entryDx=0;entryDy=0;entryPerimeter=0;exitX=0;exitY=0.5;exitDx=0;exitDy=0;exitPerimeter=0;strokeWidth=2;" edge="1" parent="1" source="O4Sl8JPDGK1HjKNpcumD-68" target="O4Sl8JPDGK1HjKNpcumD-3">
          <mxGeometry width="50" height="50" relative="1" as="geometry">
            <mxPoint x="822" y="118" as="sourcePoint" />
            <mxPoint x="500" y="160" as="targetPoint" />
          </mxGeometry>
        </mxCell>
        <mxCell id="O4Sl8JPDGK1HjKNpcumD-5" value="" style="pointerEvents=1;verticalLabelPosition=bottom;shadow=0;dashed=0;align=center;html=1;verticalAlign=top;shape=mxgraph.electrical.signal_sources.source;aspect=fixed;points=[[0.5,0,0],[1,0.5,0],[0.5,1,0],[0,0.5,0]];elSignalType=ac;strokeWidth=2;" vertex="1" parent="1">
          <mxGeometry x="910" y="134" width="50" height="50" as="geometry" />
        </mxCell>
        <mxCell id="O4Sl8JPDGK1HjKNpcumD-6" value="" style="endArrow=none;html=1;rounded=0;entryX=0.5;entryY=0;entryDx=0;entryDy=0;entryPerimeter=0;exitX=1;exitY=1;exitDx=0;exitDy=0;exitPerimeter=0;strokeWidth=2;" edge="1" parent="1" source="O4Sl8JPDGK1HjKNpcumD-3" target="O4Sl8JPDGK1HjKNpcumD-5">
          <mxGeometry width="50" height="50" relative="1" as="geometry">
            <mxPoint x="690" y="210" as="sourcePoint" />
            <mxPoint x="740" y="160" as="targetPoint" />
            <Array as="points">
              <mxPoint x="935" y="118" />
            </Array>
          </mxGeometry>
        </mxCell>
        <mxCell id="O4Sl8JPDGK1HjKNpcumD-7" value="" style="pointerEvents=1;verticalLabelPosition=bottom;shadow=0;dashed=0;align=center;html=1;verticalAlign=top;shape=mxgraph.electrical.electro-mechanical.make_contact;rotation=-90;strokeWidth=2;" vertex="1" parent="1">
          <mxGeometry x="299" y="60" width="75" height="16" as="geometry" />
        </mxCell>
        <mxCell id="O4Sl8JPDGK1HjKNpcumD-8" value="" style="pointerEvents=1;verticalLabelPosition=bottom;shadow=0;dashed=0;align=center;html=1;verticalAlign=top;shape=mxgraph.electrical.electro-mechanical.make_contact;rotation=-90;strokeWidth=2;" vertex="1" parent="1">
          <mxGeometry x="550" y="60" width="75" height="16" as="geometry" />
        </mxCell>
        <mxCell id="O4Sl8JPDGK1HjKNpcumD-9" value="" style="pointerEvents=1;verticalLabelPosition=bottom;shadow=0;dashed=0;align=center;html=1;verticalAlign=top;shape=mxgraph.electrical.electro-mechanical.make_contact;rotation=-90;strokeWidth=2;" vertex="1" parent="1">
          <mxGeometry x="300" y="270" width="75" height="16" as="geometry" />
        </mxCell>
        <mxCell id="O4Sl8JPDGK1HjKNpcumD-10" value="" style="pointerEvents=1;verticalLabelPosition=bottom;shadow=0;dashed=0;align=center;html=1;verticalAlign=top;shape=mxgraph.electrical.electro-mechanical.make_contact;rotation=-90;strokeWidth=2;" vertex="1" parent="1">
          <mxGeometry x="550" y="270" width="75" height="16" as="geometry" />
        </mxCell>
        <mxCell id="O4Sl8JPDGK1HjKNpcumD-11" value="&lt;font style=&quot;font-size: 18px;&quot;&gt;&lt;font style=&quot;font-size: 18px;&quot;&gt;T&lt;/font&gt;&lt;sub&gt;&lt;font style=&quot;font-size: 18px;&quot;&gt;1&lt;/font&gt;&lt;/sub&gt;&lt;/font&gt;" style="text;html=1;strokeColor=none;fillColor=none;align=center;verticalAlign=middle;whiteSpace=wrap;rounded=0;strokeWidth=2;" vertex="1" parent="1">
          <mxGeometry x="290" y="60" width="60" height="30" as="geometry" />
        </mxCell>
        <mxCell id="O4Sl8JPDGK1HjKNpcumD-12" value="&lt;font style=&quot;font-size: 18px;&quot;&gt;&lt;font style=&quot;font-size: 18px;&quot;&gt;T&lt;/font&gt;&lt;sub&gt;&lt;font style=&quot;font-size: 18px;&quot;&gt;3&lt;/font&gt;&lt;/sub&gt;&lt;/font&gt;" style="text;html=1;strokeColor=none;fillColor=none;align=center;verticalAlign=middle;whiteSpace=wrap;rounded=0;strokeWidth=2;" vertex="1" parent="1">
          <mxGeometry x="540" y="60" width="60" height="30" as="geometry" />
        </mxCell>
        <mxCell id="O4Sl8JPDGK1HjKNpcumD-13" value="&lt;font style=&quot;font-size: 18px;&quot;&gt;&lt;font style=&quot;font-size: 18px;&quot;&gt;T&lt;/font&gt;&lt;sub&gt;&lt;font style=&quot;font-size: 18px;&quot;&gt;4&lt;/font&gt;&lt;/sub&gt;&lt;/font&gt;" style="text;html=1;strokeColor=none;fillColor=none;align=center;verticalAlign=middle;whiteSpace=wrap;rounded=0;strokeWidth=2;" vertex="1" parent="1">
          <mxGeometry x="540" y="270" width="60" height="30" as="geometry" />
        </mxCell>
        <mxCell id="O4Sl8JPDGK1HjKNpcumD-14" value="&lt;font style=&quot;font-size: 18px;&quot;&gt;&lt;font style=&quot;font-size: 18px;&quot;&gt;T&lt;/font&gt;&lt;sub&gt;&lt;font style=&quot;font-size: 18px;&quot;&gt;2&lt;/font&gt;&lt;/sub&gt;&lt;/font&gt;" style="text;html=1;strokeColor=none;fillColor=none;align=center;verticalAlign=middle;whiteSpace=wrap;rounded=0;strokeWidth=2;" vertex="1" parent="1">
          <mxGeometry x="290" y="270" width="60" height="30" as="geometry" />
        </mxCell>
        <mxCell id="O4Sl8JPDGK1HjKNpcumD-15" value="A" style="verticalLabelPosition=middle;shadow=0;dashed=0;align=center;html=1;verticalAlign=middle;strokeWidth=2;shape=ellipse;aspect=fixed;fontSize=29;" vertex="1" parent="1">
          <mxGeometry x="190" y="300" width="36" height="36" as="geometry" />
        </mxCell>
        <mxCell id="O4Sl8JPDGK1HjKNpcumD-16" value="&lt;font style=&quot;font-size: 29px;&quot;&gt;V&lt;/font&gt;" style="verticalLabelPosition=middle;shadow=0;dashed=0;align=center;html=1;verticalAlign=middle;strokeWidth=2;shape=ellipse;aspect=fixed;fontSize=50;" vertex="1" parent="1">
          <mxGeometry x="10" y="160" width="40" height="40" as="geometry" />
        </mxCell>
        <mxCell id="O4Sl8JPDGK1HjKNpcumD-17" value="&lt;font style=&quot;font-size: 29px;&quot;&gt;V&lt;/font&gt;" style="verticalLabelPosition=middle;shadow=0;dashed=0;align=center;html=1;verticalAlign=middle;strokeWidth=2;shape=ellipse;aspect=fixed;fontSize=50;" vertex="1" parent="1">
          <mxGeometry x="1000" y="140" width="40" height="40" as="geometry" />
        </mxCell>
        <mxCell id="O4Sl8JPDGK1HjKNpcumD-18" value="A" style="verticalLabelPosition=middle;shadow=0;dashed=0;align=center;html=1;verticalAlign=middle;strokeWidth=2;shape=ellipse;aspect=fixed;fontSize=29;" vertex="1" parent="1">
          <mxGeometry x="630" y="184" width="36" height="36" as="geometry" />
        </mxCell>
        <mxCell id="O4Sl8JPDGK1HjKNpcumD-19" value="" style="endArrow=classic;html=1;rounded=0;entryX=1;entryY=0.5;entryDx=0;entryDy=0;exitX=0;exitY=1;exitDx=0;exitDy=0;exitPerimeter=0;strokeWidth=2;" edge="1" parent="1" source="O4Sl8JPDGK1HjKNpcumD-10" target="O4Sl8JPDGK1HjKNpcumD-15">
          <mxGeometry width="50" height="50" relative="1" as="geometry">
            <mxPoint x="550" y="230" as="sourcePoint" />
            <mxPoint x="600" y="180" as="targetPoint" />
            <Array as="points">
              <mxPoint x="596" y="318" />
            </Array>
          </mxGeometry>
        </mxCell>
        <mxCell id="O4Sl8JPDGK1HjKNpcumD-20" value="" style="endArrow=none;html=1;rounded=0;entryX=0;entryY=1;entryDx=0;entryDy=0;entryPerimeter=0;exitX=1;exitY=0.5;exitDx=0;exitDy=0;strokeWidth=2;" edge="1" parent="1" source="O4Sl8JPDGK1HjKNpcumD-15" target="O4Sl8JPDGK1HjKNpcumD-9">
          <mxGeometry width="50" height="50" relative="1" as="geometry">
            <mxPoint x="550" y="270" as="sourcePoint" />
            <mxPoint x="600" y="220" as="targetPoint" />
            <Array as="points">
              <mxPoint x="346" y="318" />
            </Array>
          </mxGeometry>
        </mxCell>
        <mxCell id="O4Sl8JPDGK1HjKNpcumD-21" value="" style="endArrow=none;html=1;rounded=0;entryX=0;entryY=0.5;entryDx=0;entryDy=0;exitX=0.5;exitY=1;exitDx=0;exitDy=0;strokeWidth=2;" edge="1" parent="1" source="O4Sl8JPDGK1HjKNpcumD-1" target="O4Sl8JPDGK1HjKNpcumD-15">
          <mxGeometry width="50" height="50" relative="1" as="geometry">
            <mxPoint x="550" y="270" as="sourcePoint" />
            <mxPoint x="600" y="220" as="targetPoint" />
            <Array as="points">
              <mxPoint x="135" y="318" />
            </Array>
          </mxGeometry>
        </mxCell>
        <mxCell id="O4Sl8JPDGK1HjKNpcumD-22" value="" style="endArrow=classic;html=1;rounded=0;entryX=1;entryY=0.5;entryDx=0;entryDy=0;exitX=1;exitY=0.5;exitDx=0;exitDy=0;exitPerimeter=0;strokeWidth=2;" edge="1" parent="1" source="O4Sl8JPDGK1HjKNpcumD-70" target="O4Sl8JPDGK1HjKNpcumD-18">
          <mxGeometry width="50" height="50" relative="1" as="geometry">
            <mxPoint x="742" y="202" as="sourcePoint" />
            <mxPoint x="600" y="220" as="targetPoint" />
          </mxGeometry>
        </mxCell>
        <mxCell id="O4Sl8JPDGK1HjKNpcumD-24" value="" style="shape=waypoint;sketch=0;fillStyle=solid;size=6;pointerEvents=1;points=[];fillColor=none;resizable=0;rotatable=0;perimeter=centerPerimeter;snapToPoint=1;strokeWidth=2;" vertex="1" parent="1">
          <mxGeometry x="335" y="108" width="20" height="20" as="geometry" />
        </mxCell>
        <mxCell id="O4Sl8JPDGK1HjKNpcumD-25" value="" style="endArrow=none;html=1;rounded=0;entryX=1;entryY=0.5;entryDx=0;entryDy=0;entryPerimeter=0;exitX=0.4;exitY=0.75;exitDx=0;exitDy=0;exitPerimeter=0;strokeWidth=2;" edge="1" parent="1" source="O4Sl8JPDGK1HjKNpcumD-24" target="O4Sl8JPDGK1HjKNpcumD-71">
          <mxGeometry width="50" height="50" relative="1" as="geometry">
            <mxPoint x="520" y="270" as="sourcePoint" />
            <mxPoint x="620" y="118" as="targetPoint" />
          </mxGeometry>
        </mxCell>
        <mxCell id="O4Sl8JPDGK1HjKNpcumD-26" value="" style="endArrow=none;html=1;rounded=0;entryX=0.65;entryY=0.85;entryDx=0;entryDy=0;entryPerimeter=0;exitX=0;exitY=1;exitDx=0;exitDy=0;exitPerimeter=0;strokeWidth=2;" edge="1" parent="1" source="O4Sl8JPDGK1HjKNpcumD-7" target="O4Sl8JPDGK1HjKNpcumD-24">
          <mxGeometry width="50" height="50" relative="1" as="geometry">
            <mxPoint x="520" y="270" as="sourcePoint" />
            <mxPoint x="570" y="220" as="targetPoint" />
          </mxGeometry>
        </mxCell>
        <mxCell id="O4Sl8JPDGK1HjKNpcumD-27" value="" style="endArrow=none;html=1;rounded=0;exitX=1;exitY=1;exitDx=0;exitDy=0;exitPerimeter=0;strokeWidth=2;" edge="1" parent="1" source="O4Sl8JPDGK1HjKNpcumD-9">
          <mxGeometry width="50" height="50" relative="1" as="geometry">
            <mxPoint x="520" y="270" as="sourcePoint" />
            <mxPoint x="345" y="118" as="targetPoint" />
          </mxGeometry>
        </mxCell>
        <mxCell id="O4Sl8JPDGK1HjKNpcumD-28" value="" style="shape=waypoint;sketch=0;fillStyle=solid;size=6;pointerEvents=1;points=[];fillColor=none;resizable=0;rotatable=0;perimeter=centerPerimeter;snapToPoint=1;strokeWidth=2;" vertex="1" parent="1">
          <mxGeometry x="585" y="192" width="20" height="20" as="geometry" />
        </mxCell>
        <mxCell id="O4Sl8JPDGK1HjKNpcumD-29" value="" style="endArrow=none;html=1;rounded=0;entryX=0;entryY=0.5;entryDx=0;entryDy=0;exitX=0.5;exitY=0.65;exitDx=0;exitDy=0;exitPerimeter=0;strokeWidth=2;" edge="1" parent="1" source="O4Sl8JPDGK1HjKNpcumD-28" target="O4Sl8JPDGK1HjKNpcumD-18">
          <mxGeometry width="50" height="50" relative="1" as="geometry">
            <mxPoint x="520" y="270" as="sourcePoint" />
            <mxPoint x="570" y="220" as="targetPoint" />
          </mxGeometry>
        </mxCell>
        <mxCell id="O4Sl8JPDGK1HjKNpcumD-30" value="" style="endArrow=none;html=1;rounded=0;entryX=1;entryY=1;entryDx=0;entryDy=0;entryPerimeter=0;exitX=0.45;exitY=0.35;exitDx=0;exitDy=0;exitPerimeter=0;strokeWidth=2;" edge="1" parent="1" source="O4Sl8JPDGK1HjKNpcumD-28" target="O4Sl8JPDGK1HjKNpcumD-10">
          <mxGeometry width="50" height="50" relative="1" as="geometry">
            <mxPoint x="520" y="270" as="sourcePoint" />
            <mxPoint x="570" y="220" as="targetPoint" />
          </mxGeometry>
        </mxCell>
        <mxCell id="O4Sl8JPDGK1HjKNpcumD-31" value="" style="endArrow=none;html=1;rounded=0;entryX=0;entryY=1;entryDx=0;entryDy=0;entryPerimeter=0;exitX=0.45;exitY=0.3;exitDx=0;exitDy=0;exitPerimeter=0;strokeWidth=2;" edge="1" parent="1" source="O4Sl8JPDGK1HjKNpcumD-28" target="O4Sl8JPDGK1HjKNpcumD-8">
          <mxGeometry width="50" height="50" relative="1" as="geometry">
            <mxPoint x="520" y="270" as="sourcePoint" />
            <mxPoint x="570" y="220" as="targetPoint" />
          </mxGeometry>
        </mxCell>
        <mxCell id="O4Sl8JPDGK1HjKNpcumD-32" value="" style="endArrow=none;html=1;rounded=0;entryX=1;entryY=1;entryDx=0;entryDy=0;entryPerimeter=0;exitX=0.5;exitY=0;exitDx=0;exitDy=0;strokeWidth=2;" edge="1" parent="1" source="O4Sl8JPDGK1HjKNpcumD-17" target="O4Sl8JPDGK1HjKNpcumD-3">
          <mxGeometry width="50" height="50" relative="1" as="geometry">
            <mxPoint x="520" y="270" as="sourcePoint" />
            <mxPoint x="570" y="220" as="targetPoint" />
            <Array as="points">
              <mxPoint x="1020" y="118" />
            </Array>
          </mxGeometry>
        </mxCell>
        <mxCell id="O4Sl8JPDGK1HjKNpcumD-33" value="" style="endArrow=none;html=1;rounded=0;entryX=0.5;entryY=1;entryDx=0;entryDy=0;exitX=0.5;exitY=1;exitDx=0;exitDy=0;strokeWidth=2;" edge="1" parent="1" source="O4Sl8JPDGK1HjKNpcumD-1" target="O4Sl8JPDGK1HjKNpcumD-16">
          <mxGeometry width="50" height="50" relative="1" as="geometry">
            <mxPoint x="520" y="270" as="sourcePoint" />
            <mxPoint x="570" y="220" as="targetPoint" />
            <Array as="points">
              <mxPoint x="135" y="260" />
              <mxPoint x="30" y="260" />
            </Array>
          </mxGeometry>
        </mxCell>
        <mxCell id="O4Sl8JPDGK1HjKNpcumD-34" value="" style="endArrow=none;html=1;rounded=0;entryX=1;entryY=1;entryDx=0;entryDy=0;entryPerimeter=0;exitX=0.5;exitY=0;exitDx=0;exitDy=0;strokeWidth=2;" edge="1" parent="1" source="O4Sl8JPDGK1HjKNpcumD-1" target="O4Sl8JPDGK1HjKNpcumD-8">
          <mxGeometry width="50" height="50" relative="1" as="geometry">
            <mxPoint x="520" y="270" as="sourcePoint" />
            <mxPoint x="570" y="220" as="targetPoint" />
            <Array as="points">
              <mxPoint x="135" y="10" />
              <mxPoint x="596" y="10" />
            </Array>
          </mxGeometry>
        </mxCell>
        <mxCell id="O4Sl8JPDGK1HjKNpcumD-35" value="" style="endArrow=none;html=1;rounded=0;entryX=1;entryY=1;entryDx=0;entryDy=0;entryPerimeter=0;exitX=0.5;exitY=0;exitDx=0;exitDy=0;strokeWidth=2;" edge="1" parent="1" source="O4Sl8JPDGK1HjKNpcumD-1" target="O4Sl8JPDGK1HjKNpcumD-7">
          <mxGeometry width="50" height="50" relative="1" as="geometry">
            <mxPoint x="520" y="270" as="sourcePoint" />
            <mxPoint x="570" y="220" as="targetPoint" />
            <Array as="points">
              <mxPoint x="135" y="10" />
              <mxPoint x="345" y="10" />
            </Array>
          </mxGeometry>
        </mxCell>
        <mxCell id="O4Sl8JPDGK1HjKNpcumD-36" value="" style="endArrow=none;html=1;rounded=0;entryX=0.5;entryY=0;entryDx=0;entryDy=0;exitX=0.5;exitY=0;exitDx=0;exitDy=0;strokeWidth=2;" edge="1" parent="1" source="O4Sl8JPDGK1HjKNpcumD-16" target="O4Sl8JPDGK1HjKNpcumD-1">
          <mxGeometry width="50" height="50" relative="1" as="geometry">
            <mxPoint x="520" y="270" as="sourcePoint" />
            <mxPoint x="570" y="220" as="targetPoint" />
            <Array as="points">
              <mxPoint x="30" y="100" />
              <mxPoint x="135" y="100" />
            </Array>
          </mxGeometry>
        </mxCell>
        <mxCell id="O4Sl8JPDGK1HjKNpcumD-37" value="" style="endArrow=classic;html=1;rounded=0;strokeWidth=2;" edge="1" parent="1">
          <mxGeometry width="50" height="50" relative="1" as="geometry">
            <mxPoint x="90" y="160" as="sourcePoint" />
            <mxPoint x="90" y="200" as="targetPoint" />
          </mxGeometry>
        </mxCell>
        <mxCell id="O4Sl8JPDGK1HjKNpcumD-38" value="" style="endArrow=classic;html=1;rounded=0;strokeWidth=2;" edge="1" parent="1">
          <mxGeometry width="50" height="50" relative="1" as="geometry">
            <mxPoint x="980" y="139" as="sourcePoint" />
            <mxPoint x="980" y="179" as="targetPoint" />
          </mxGeometry>
        </mxCell>
        <mxCell id="O4Sl8JPDGK1HjKNpcumD-51" value="" style="verticalLabelPosition=bottom;shadow=0;dashed=0;align=center;html=1;verticalAlign=top;shape=mxgraph.electrical.abstract.multiplier;strokeWidth=2;" vertex="1" parent="1">
          <mxGeometry x="355" y="433" width="35" height="35" as="geometry" />
        </mxCell>
        <mxCell id="O4Sl8JPDGK1HjKNpcumD-60" value="&lt;font style=&quot;font-size: 24px;&quot; face=&quot;Times New Roman&quot;&gt;I*&lt;/font&gt;" style="text;html=1;strokeColor=none;fillColor=none;align=center;verticalAlign=middle;whiteSpace=wrap;rounded=0;strokeWidth=2;" vertex="1" parent="1">
          <mxGeometry x="342.5" y="520" width="60" height="30" as="geometry" />
        </mxCell>
        <mxCell id="O4Sl8JPDGK1HjKNpcumD-61" value="" style="endArrow=classic;html=1;rounded=0;entryX=0.5;entryY=1;entryDx=0;entryDy=0;entryPerimeter=0;strokeWidth=2;" edge="1" parent="1" target="O4Sl8JPDGK1HjKNpcumD-51">
          <mxGeometry width="50" height="50" relative="1" as="geometry">
            <mxPoint x="373" y="520" as="sourcePoint" />
            <mxPoint x="760" y="360" as="targetPoint" />
          </mxGeometry>
        </mxCell>
        <mxCell id="O4Sl8JPDGK1HjKNpcumD-63" value="" style="endArrow=classic;html=1;rounded=0;entryX=0;entryY=0.5;entryDx=0;entryDy=0;entryPerimeter=0;exitX=1;exitY=0.5;exitDx=0;exitDy=0;strokeWidth=2;" edge="1" parent="1" source="O4Sl8JPDGK1HjKNpcumD-75" target="O4Sl8JPDGK1HjKNpcumD-51">
          <mxGeometry width="50" height="50" relative="1" as="geometry">
            <mxPoint x="340" y="451.25" as="sourcePoint" />
            <mxPoint x="800" y="360" as="targetPoint" />
          </mxGeometry>
        </mxCell>
        <mxCell id="O4Sl8JPDGK1HjKNpcumD-64" value="" style="endArrow=classic;html=1;rounded=0;exitX=0.5;exitY=1;exitDx=0;exitDy=0;entryX=0.5;entryY=1;entryDx=0;entryDy=0;fillColor=#e1d5e7;strokeColor=#9673a6;strokeWidth=3;" edge="1" parent="1" source="O4Sl8JPDGK1HjKNpcumD-18">
          <mxGeometry width="50" height="50" relative="1" as="geometry">
            <mxPoint x="520" y="440" as="sourcePoint" />
            <mxPoint x="473.5" y="468" as="targetPoint" />
            <Array as="points">
              <mxPoint x="650" y="370" />
              <mxPoint x="510" y="370" />
              <mxPoint x="510" y="540" />
              <mxPoint x="474" y="540" />
            </Array>
          </mxGeometry>
        </mxCell>
        <mxCell id="O4Sl8JPDGK1HjKNpcumD-66" value="" style="endArrow=classic;html=1;rounded=0;entryX=0;entryY=0.5;entryDx=0;entryDy=0;exitX=1;exitY=0.5;exitDx=0;exitDy=0;fillColor=#d5e8d4;strokeColor=#82b366;strokeWidth=3;" edge="1" parent="1" source="O4Sl8JPDGK1HjKNpcumD-17" target="O4Sl8JPDGK1HjKNpcumD-75">
          <mxGeometry width="50" height="50" relative="1" as="geometry">
            <mxPoint x="520" y="440" as="sourcePoint" />
            <mxPoint x="250" y="451.25" as="targetPoint" />
            <Array as="points">
              <mxPoint x="1070" y="160" />
              <mxPoint x="1070" y="560" />
              <mxPoint x="190" y="560" />
              <mxPoint x="190" y="451" />
            </Array>
          </mxGeometry>
        </mxCell>
        <mxCell id="O4Sl8JPDGK1HjKNpcumD-67" value="" style="endArrow=none;html=1;rounded=0;entryX=0;entryY=0.5;entryDx=0;entryDy=0;entryPerimeter=0;exitX=0;exitY=0.5;exitDx=0;exitDy=0;exitPerimeter=0;strokeWidth=2;" edge="1" parent="1" source="O4Sl8JPDGK1HjKNpcumD-70" target="O4Sl8JPDGK1HjKNpcumD-71">
          <mxGeometry width="50" height="50" relative="1" as="geometry">
            <mxPoint x="752" y="128" as="sourcePoint" />
            <mxPoint x="730" y="128" as="targetPoint" />
          </mxGeometry>
        </mxCell>
        <mxCell id="O4Sl8JPDGK1HjKNpcumD-68" value="" style="pointerEvents=1;verticalLabelPosition=bottom;shadow=0;dashed=0;align=center;html=1;verticalAlign=top;shape=mxgraph.electrical.resistors.resistor_1;rotation=90;strokeWidth=2;fillColor=#000000;" vertex="1" parent="1">
          <mxGeometry x="760" y="154" width="84" height="12" as="geometry" />
        </mxCell>
        <mxCell id="O4Sl8JPDGK1HjKNpcumD-69" value="" style="endArrow=none;html=1;rounded=0;strokeWidth=3;" edge="1" parent="1">
          <mxGeometry width="50" height="50" relative="1" as="geometry">
            <mxPoint x="788" y="198" as="sourcePoint" />
            <mxPoint x="788" y="118" as="targetPoint" />
          </mxGeometry>
        </mxCell>
        <mxCell id="O4Sl8JPDGK1HjKNpcumD-70" value="" style="pointerEvents=1;verticalLabelPosition=bottom;shadow=0;dashed=0;align=center;html=1;verticalAlign=top;shape=mxgraph.electrical.resistors.resistor_1;rotation=90;strokeWidth=2;fillColor=#000000;" vertex="1" parent="1">
          <mxGeometry x="730" y="154" width="84" height="12" as="geometry" />
        </mxCell>
        <mxCell id="O4Sl8JPDGK1HjKNpcumD-71" value="" style="pointerEvents=1;verticalLabelPosition=bottom;shadow=0;dashed=0;align=center;html=1;verticalAlign=top;shape=mxgraph.electrical.resistors.resistor_1;rotation=-180;strokeWidth=2;fillColor=#FF9933;strokeColor=#ff9300;" vertex="1" parent="1">
          <mxGeometry x="636" y="112" width="84" height="12" as="geometry" />
        </mxCell>
        <mxCell id="O4Sl8JPDGK1HjKNpcumD-72" value="" style="endArrow=none;html=1;rounded=0;entryX=1;entryY=0.5;entryDx=0;entryDy=0;entryPerimeter=0;exitX=0.5;exitY=1;exitDx=0;exitDy=0;strokeWidth=2;" edge="1" parent="1" source="O4Sl8JPDGK1HjKNpcumD-17" target="O4Sl8JPDGK1HjKNpcumD-68">
          <mxGeometry width="50" height="50" relative="1" as="geometry">
            <mxPoint x="630" y="50" as="sourcePoint" />
            <mxPoint x="680" as="targetPoint" />
            <Array as="points">
              <mxPoint x="1020" y="202" />
            </Array>
          </mxGeometry>
        </mxCell>
        <mxCell id="O4Sl8JPDGK1HjKNpcumD-73" value="" style="endArrow=none;html=1;rounded=0;entryX=0.5;entryY=1;entryDx=0;entryDy=0;entryPerimeter=0;exitX=1;exitY=0.5;exitDx=0;exitDy=0;exitPerimeter=0;strokeWidth=2;" edge="1" parent="1" source="O4Sl8JPDGK1HjKNpcumD-68" target="O4Sl8JPDGK1HjKNpcumD-5">
          <mxGeometry width="50" height="50" relative="1" as="geometry">
            <mxPoint x="630" y="50" as="sourcePoint" />
            <mxPoint x="680" as="targetPoint" />
            <Array as="points">
              <mxPoint x="935" y="202" />
            </Array>
          </mxGeometry>
        </mxCell>
        <mxCell id="O4Sl8JPDGK1HjKNpcumD-74" value="&lt;p style=&quot;line-height: 140%;&quot;&gt;&lt;font style=&quot;font-size: 28px;&quot;&gt;+&lt;/font&gt;&lt;/p&gt;" style="ellipse;whiteSpace=wrap;html=1;aspect=fixed;align=center;strokeWidth=2;" vertex="1" parent="1">
          <mxGeometry x="456" y="433" width="35" height="35" as="geometry" />
        </mxCell>
        <mxCell id="O4Sl8JPDGK1HjKNpcumD-75" value="&lt;font style=&quot;font-size: 18px;&quot;&gt;&lt;font style=&quot;font-size: 18px;&quot;&gt;SOGI&lt;/font&gt; &lt;font style=&quot;font-size: 18px;&quot;&gt;PLL&lt;/font&gt;&lt;/font&gt;" style="whiteSpace=wrap;html=1;aspect=fixed;" vertex="1" parent="1">
          <mxGeometry x="248" y="407" width="87" height="87" as="geometry" />
        </mxCell>
        <mxCell id="O4Sl8JPDGK1HjKNpcumD-76" value="&lt;font style=&quot;font-size: 26px;&quot;&gt;-&lt;/font&gt;" style="text;html=1;strokeColor=none;fillColor=none;align=center;verticalAlign=middle;whiteSpace=wrap;rounded=0;strokeWidth=2;" vertex="1" parent="1">
          <mxGeometry x="431" y="460" width="60" height="30" as="geometry" />
        </mxCell>
        <mxCell id="O4Sl8JPDGK1HjKNpcumD-77" value="" style="endArrow=classic;html=1;rounded=0;entryX=0;entryY=0.5;entryDx=0;entryDy=0;strokeWidth=2;exitX=1;exitY=0.5;exitDx=0;exitDy=0;exitPerimeter=0;" edge="1" parent="1" source="O4Sl8JPDGK1HjKNpcumD-51" target="O4Sl8JPDGK1HjKNpcumD-74">
          <mxGeometry width="50" height="50" relative="1" as="geometry">
            <mxPoint x="383" y="530" as="sourcePoint" />
            <mxPoint x="383" y="478" as="targetPoint" />
          </mxGeometry>
        </mxCell>
        <mxCell id="O4Sl8JPDGK1HjKNpcumD-78" value="PR Controll" style="whiteSpace=wrap;html=1;aspect=fixed;" vertex="1" parent="1">
          <mxGeometry x="550" y="407" width="87" height="87" as="geometry" />
        </mxCell>
        <mxCell id="O4Sl8JPDGK1HjKNpcumD-79" value="" style="endArrow=classic;html=1;rounded=0;strokeWidth=2;exitX=1;exitY=0.5;exitDx=0;exitDy=0;exitPerimeter=0;" edge="1" parent="1">
          <mxGeometry width="50" height="50" relative="1" as="geometry">
            <mxPoint x="491" y="450.21" as="sourcePoint" />
            <mxPoint x="550" y="450" as="targetPoint" />
          </mxGeometry>
        </mxCell>
        <mxCell id="O4Sl8JPDGK1HjKNpcumD-80" value="" style="endArrow=classic;html=1;rounded=0;entryX=0;entryY=0.5;entryDx=0;entryDy=0;strokeWidth=2;exitX=1;exitY=0.5;exitDx=0;exitDy=0;exitPerimeter=0;" edge="1" parent="1">
          <mxGeometry width="50" height="50" relative="1" as="geometry">
            <mxPoint x="637" y="450.21" as="sourcePoint" />
            <mxPoint x="703" y="450.21" as="targetPoint" />
          </mxGeometry>
        </mxCell>
        <mxCell id="O4Sl8JPDGK1HjKNpcumD-81" value="PWM T1;T2;T3;T4" style="text;html=1;align=center;verticalAlign=middle;resizable=0;points=[];autosize=1;strokeColor=none;fillColor=none;" vertex="1" parent="1">
          <mxGeometry x="640" y="414" width="120" height="30" as="geometry" />
        </mxCell>
      </root>
    </mxGraphModel>
  </diagram>
</mxfile>
